<svg xmlns="http://www.w3.org/2000/svg" viewBox="0 0 800 564" width="800" height="564" role="img" aria-label="Salt Bread and Coffee pop-up — route map">
<title>Salt Bread and Coffee pop-up — route map</title>
<rect width="800" height="564" fill="#f6ece0"/>
<path d="M750.7,131.1L750.8,131.3L752.0,131.0L751.1,126.9L751.0,126.5L750.6,124.6L747.9,117.9L739.4,97.2L738.7,95.5L734.4,84.9L731.9,78.6L730.4,75.0L728.8,72.5L726.8,68.1L726.4,67.4L726.0,67.0L725.1,66.3L724.3,66.1L720.7,66.5L717.3,66.8L701.3,71.9L700.9,72.0L699.9,72.3L690.0,75.8L687.7,76.7L684.4,77.4L684.0,77.6L680.9,79.2L676.4,80.8L674.7,81.4L653.7,89.3L653.3,89.5L652.4,89.9L650.8,90.5L627.5,99.1L624.3,100.3L623.9,100.4L623.0,100.8L622.0,101.1L595.5,110.8L594.9,111.0L593.2,111.6L591.5,112.3L565.4,121.8L564.9,121.9L563.9,122.3L562.7,122.7L534.1,133.2L533.7,133.3L532.8,133.7L531.7,134.0L507.6,142.9L507.2,143.0L506.0,143.4L504.9,143.8L486.9,150.4L486.4,150.6L485.4,151.0L484.3,151.4L453.4,162.6L453.0,162.8L452.6,162.9L451.5,163.4L450.1,163.9L449.7,164.0L423.9,173.4L423.4,173.6L422.0,174.1L417.0,175.8L413.3,177.2L409.1,178.8L407.5,179.4L407.1,179.5L405.0,180.3L403.4,180.9L401.5,181.6L398.4,182.8L377.9,189.9L377.3,190.2L375.9,190.7L374.4,191.3L371.9,192.2L361.7,196.1L357.7,197.0L354.0,197.6L352.0,197.8L349.2,198.8L342.9,200.9L339.4,202.1L335.5,203.6L334.2,204.4L332.1,206.0L328.3,207.5L311.8,213.6L310.1,213.6L309.4,213.8L284.0,223.2L283.4,223.4L282.1,224.6L280.0,225.4L279.5,225.6L272.4,228.2L261.9,232.0L261.2,231.9L260.1,232.1L257.6,233.1L257.0,233.5L256.5,234.1L251.4,236.0L247.9,237.3L246.8,237.3L245.3,237.4L243.6,237.9L240.7,238.9L240.1,239.2L239.8,239.3L238.2,239.9L236.5,240.5L237.3,242.8L238.0,244.8L239.3,248.2L240.1,250.0L242.2,253.4L243.1,255.9L243.6,258.9L244.2,261.0L245.0,263.6L245.8,265.6L247.4,270.0L250.3,276.8L250.8,278.3L249.1,278.1L248.6,278.0L248.5,279.2L243.5,279.3L242.0,279.6L239.6,280.9L236.9,282.2L233.4,284.2L231.2,285.7L227.9,288.2L225.2,290.3L222.7,292.6L215.0,300.7L212.9,302.4L210.8,304.1L207.5,306.2L199.0,311.7L193.8,315.7L192.2,317.1L188.9,321.2L187.4,323.2L186.1,324.4L183.8,326.4L179.3,329.4L176.8,331.5L170.6,338.6L168.2,342.5L166.5,345.0L163.2,350.7L161.7,353.9L161.1,356.1L160.1,359.2L158.8,362.5L157.9,365.7L157.2,369.0L153.9,388.3L150.8,398.7L149.7,401.9L147.8,406.7L146.1,412.3L145.9,414.1L145.9,416.6L146.2,418.3L146.7,419.4L147.4,420.9L145.1,426.9L143.4,431.6L142.9,432.7L142.5,433.9L142.3,434.5L139.7,441.0L135.9,451.1L135.2,452.1L128.9,448.0L126.6,446.7L123.1,445.0L120.5,443.5L119.7,443.1L119.2,444.0L112.8,456.1L112.4,456.7L108.7,462.6L107.3,464.4L106.9,465.1L102.0,472.6L101.5,473.2L100.7,474.4L93.9,483.8L92.7,485.4L90.9,484.5L89.1,484.3L84.8,484.8L83.7,484.9L80.1,485.4L74.0,486.2L70.0,486.9L63.3,488.0L60.9,488.3L57.8,488.9L53.1,489.6L52.6,489.7L51.1,489.9L51.0,489.1L49.9,489.4L49.6,489.5L48.0,481.2" fill="none" stroke="#e6d5c2" stroke-width="13" stroke-linecap="round" stroke-linejoin="round"/>
<path d="M750.7,131.1L750.8,131.3L752.0,131.0L751.1,126.9L751.0,126.5L750.6,124.6L747.9,117.9L739.4,97.2L738.7,95.5L734.4,84.9L731.9,78.6L730.4,75.0L728.8,72.5L726.8,68.1L726.4,67.4L726.0,67.0L725.1,66.3L724.3,66.1L720.7,66.5L717.3,66.8L701.3,71.9L700.9,72.0L699.9,72.3L690.0,75.8L687.7,76.7L684.4,77.4L684.0,77.6L680.9,79.2L676.4,80.8L674.7,81.4L653.7,89.3L653.3,89.5L652.4,89.9L650.8,90.5L627.5,99.1L624.3,100.3L623.9,100.4L623.0,100.8L622.0,101.1L595.5,110.8L594.9,111.0L593.2,111.6L591.5,112.3L565.4,121.8L564.9,121.9L563.9,122.3L562.7,122.7L534.1,133.2L533.7,133.3L532.8,133.7L531.7,134.0L507.6,142.9L507.2,143.0L506.0,143.4L504.9,143.8L486.9,150.4L486.4,150.6L485.4,151.0L484.3,151.4L453.4,162.6L453.0,162.8L452.6,162.9L451.5,163.4L450.1,163.9L449.7,164.0L423.9,173.4L423.4,173.6L422.0,174.1L417.0,175.8L413.3,177.2L409.1,178.8L407.5,179.4L407.1,179.5L405.0,180.3L403.4,180.9L401.5,181.6L398.4,182.8L377.9,189.9L377.3,190.2L375.9,190.7L374.4,191.3L371.9,192.2L361.7,196.1L357.7,197.0L354.0,197.6L352.0,197.8L349.2,198.8L342.9,200.9L339.4,202.1L335.5,203.6L334.2,204.4L332.1,206.0L328.3,207.5L311.8,213.6L310.1,213.6L309.4,213.8L284.0,223.2L283.4,223.4L282.1,224.6L280.0,225.4L279.5,225.6L272.4,228.2L261.9,232.0L261.2,231.9L260.1,232.1L257.6,233.1L257.0,233.5L256.5,234.1L251.4,236.0L247.9,237.3L246.8,237.3L245.3,237.4L243.6,237.9L240.7,238.9L240.1,239.2L239.8,239.3L238.2,239.9L236.5,240.5L237.3,242.8L238.0,244.8L239.3,248.2L240.1,250.0L242.2,253.4L243.1,255.9L243.6,258.9L244.2,261.0L245.0,263.6L245.8,265.6L247.4,270.0L250.3,276.8L250.8,278.3L249.1,278.1L248.6,278.0L248.5,279.2L243.5,279.3L242.0,279.6L239.6,280.9L236.9,282.2L233.4,284.2L231.2,285.7L227.9,288.2L225.2,290.3L222.7,292.6L215.0,300.7L212.9,302.4L210.8,304.1L207.5,306.2L199.0,311.7L193.8,315.7L192.2,317.1L188.9,321.2L187.4,323.2L186.1,324.4L183.8,326.4L179.3,329.4L176.8,331.5L170.6,338.6L168.2,342.5L166.5,345.0L163.2,350.7L161.7,353.9L161.1,356.1L160.1,359.2L158.8,362.5L157.9,365.7L157.2,369.0L153.9,388.3L150.8,398.7L149.7,401.9L147.8,406.7L146.1,412.3L145.9,414.1L145.9,416.6L146.2,418.3L146.7,419.4L147.4,420.9L145.1,426.9L143.4,431.6L142.9,432.7L142.5,433.9L142.3,434.5L139.7,441.0L135.9,451.1L135.2,452.1L128.9,448.0L126.6,446.7L123.1,445.0L120.5,443.5L119.7,443.1L119.2,444.0L112.8,456.1L112.4,456.7L108.7,462.6L107.3,464.4L106.9,465.1L102.0,472.6L101.5,473.2L100.7,474.4L93.9,483.8L92.7,485.4L90.9,484.5L89.1,484.3L84.8,484.8L83.7,484.9L80.1,485.4L74.0,486.2L70.0,486.9L63.3,488.0L60.9,488.3L57.8,488.9L53.1,489.6L52.6,489.7L51.1,489.9L51.0,489.1L49.9,489.4L49.6,489.5L48.0,481.2" fill="none" stroke="#b07a4a" stroke-width="6" stroke-linecap="round" stroke-linejoin="round"/>
<circle cx="750.7" cy="131.1" r="9" fill="#fffaf4" stroke="#4a2c1a" stroke-width="4"/>
<circle cx="48.0" cy="481.2" r="9" fill="#4a2c1a" stroke="#fffaf4" stroke-width="4"/>
<rect x="48" y="24" width="118" height="34" rx="17" fill="#2e1d13"/>
<text x="107.0" y="48.0" font-family="Georgia, 'Iowan Old Style', 'Times New Roman', serif" font-size="19" font-weight="700" fill="#fffaf4" text-anchor="middle">~3.7 mi</text>
<text x="48.0" y="524.0" font-family="Georgia, 'Iowan Old Style', 'Times New Roman', serif" font-size="20" font-weight="700" fill="#4a2c1a" text-anchor="start">Start · Bluebikes</text>
<text x="752.0" y="524.0" font-family="Georgia, 'Iowan Old Style', 'Times New Roman', serif" font-size="20" font-weight="700" fill="#4a2c1a" text-anchor="end">Merai · End</text>
<text x="752.0" y="550.0" font-family="Georgia, 'Iowan Old Style', 'Times New Roman', serif" font-size="12" font-weight="400" fill="#7a685a" text-anchor="end">Route © OpenStreetMap contributors</text>
</svg>
